#N canvas 344 185 450 534 10;
#X declare -lib mrpeach;
#X obj 45 65 import mrpeach;
#X obj 180 229 packOSC;
#X msg 27 153 connect localhost 7772;
#X obj 6 268 udpsend;
#X msg 29 182 disconnect;
#X obj 15 111 inlet;
#X obj 183 141 inlet;
#X connect 1 0 3 0;
#X connect 2 0 3 0;
#X connect 4 0 3 0;
#X connect 5 0 3 0;
#X connect 6 0 1 0;
