#N canvas 159 212 604 678 10;
#X declare -lib mrpeach;
#X declare -lib mrpeach;
#X obj 405 244 convert.ascii2pd CR;
#N canvas 712 205 905 623 in&out 0;
#X obj 114 116 list-extend;
#X obj 191 77 sel 10;
#X msg 191 185 49 48 49 48 13;
#X obj 190 157 prepend set;
#X obj 193 236 gate;
#X msg 126 209 0;
#X msg 160 207 1;
#X obj 116 30 inlet;
#X obj 198 268 outlet;
#X obj 87 80 route 10;
#X connect 0 0 3 0;
#X connect 1 0 0 1;
#X connect 1 0 6 0;
#X connect 1 0 2 0;
#X connect 1 1 5 0;
#X connect 2 0 4 1;
#X connect 3 0 2 0;
#X connect 4 0 8 0;
#X connect 5 0 4 0;
#X connect 6 0 4 0;
#X connect 7 0 1 0;
#X connect 7 0 9 0;
#X connect 9 1 0 0;
#X restore 408 218 pd in&out;
#X floatatom 193 476 5 0 0 0 - - -;
#X msg 327 88 devices;
#X obj 405 172 comport 9600;
#X obj 543 80 import mrpeach;
#X obj 406 278 unpack 0;
#X obj 304 -39 bng 15 250 50 0 empty empty empty 17 7 0 10 -262144
-1 -1;
#X obj 371 -38 bng 15 250 50 0 empty empty empty 17 7 0 10 -262144
-1 -1;
#X text 322 -46 Start;
#X text 396 -41 Stop;
#X text 23 64 Unity connection;
#X msg 456 59 close 20;
#X msg 387 60 open 20;
#X msg 114 181 disconnect;
#X msg 58 110 connect localhost 7781;
#X obj 414 317 vsl 15 128 0 1024 0 0 empty empty empty 0 -9 0 10 -262144
-1 -1 5500 1;
#X obj 258 451 int;
#X obj 114 535 oscSend CR;
#X msg 174 509 send /test \$1;
#X connect 0 0 6 0;
#X connect 1 0 0 0;
#X connect 2 0 19 0;
#X connect 3 0 4 0;
#X connect 4 0 1 0;
#X connect 6 0 2 0;
#X connect 7 0 15 0;
#X connect 7 0 13 0;
#X connect 8 0 12 0;
#X connect 8 0 14 0;
#X connect 12 0 4 0;
#X connect 13 0 4 0;
#X connect 14 0 18 0;
#X connect 15 0 18 0;
#X connect 16 0 17 0;
#X connect 17 0 2 0;
#X connect 19 0 18 1;
